{"glyphs":{":":{"x_min":0,"x_max":268,"ha":268,"o":"m 194 391 q 194 375 192 364 q 189 354 183 347 q 177 340 167 338 q 158 335 143 335 q 127 335 117 338 q 107 340 102 347 q 96 354 94 364 q 91 375 91 391 q 91 407 94 418 q 96 429 102 436 q 107 442 117 445 q 127 448 143 448 q 158 448 167 445 q 177 442 183 436 q 189 429 192 418 q 194 407 194 391 z m 194 52 q 194 36 192 25 q 189 14 183 8 q 177 1 167 -2 q 158 -4 143 -4 q 127 -4 117 -2 q 107 1 102 8 q 96 14 94 25 q 91 36 91 52 q 91 68 94 79 q 96 90 102 96 q 107 103 117 105 q 127 108 143 108 q 158 108 167 105 q 177 103 183 96 q 189 90 192 79 q 194 68 194 52 z"},"$":{"x_min":0,"x_max":507,"ha":507,"o":""},"?":{"x_min":0,"x_max":463,"ha":463,"o":"m 417 484 q 417 441 405 408 q 393 375 371 351 q 349 328 318 314 q 288 301 250 299 l 247 181 q 247 174 238 170 q 229 167 210 167 q 200 167 193 167 q 186 168 181 170 q 177 171 175 174 q 173 177 173 181 l 170 316 q 169 328 172 335 q 174 342 178 346 q 183 351 189 353 q 196 354 205 354 l 216 354 q 248 354 270 365 q 292 375 306 391 q 320 408 327 430 q 333 453 333 477 q 333 505 325 528 q 317 551 302 568 q 286 585 262 594 q 239 604 207 604 q 178 604 157 597 q 136 591 120 584 q 104 577 94 571 q 84 565 80 565 q 76 565 73 566 q 71 568 69 572 q 67 576 66 583 q 65 590 65 601 q 65 613 66 619 q 68 625 73 630 q 78 634 92 642 q 105 649 125 656 q 145 662 169 667 q 192 671 218 671 q 270 671 308 656 q 345 641 370 616 q 394 590 406 556 q 417 522 417 484 z m 263 51 q 263 35 261 24 q 259 14 253 7 q 247 0 237 -2 q 227 -5 212 -5 q 197 -5 187 -2 q 177 0 171 7 q 165 14 163 24 q 161 35 161 51 q 161 67 163 78 q 165 89 171 95 q 177 101 187 104 q 197 106 212 106 q 227 106 237 104 q 247 101 253 95 q 259 89 261 78 q 263 67 263 51 z"},"<":{"x_min":0,"x_max":498,"ha":498,"o":"m 449 79 q 449 67 448 59 q 447 52 444 49 q 442 45 438 46 q 435 46 429 49 l 44 244 q 40 246 37 255 q 34 265 34 282 q 34 290 34 297 q 35 304 37 308 q 39 312 41 316 q 43 319 46 320 l 429 513 q 440 519 445 513 q 449 507 449 484 q 449 470 448 461 q 447 453 446 448 q 444 443 441 440 q 438 438 432 435 l 117 281 l 430 129 q 436 126 440 123 q 443 121 445 115 q 447 110 448 102 q 449 93 449 79 z"},"'":{"x_min":0,"x_max":221,"ha":221,"o":"m 142 440 q 142 437 140 434 q 138 431 135 429 q 131 427 125 426 q 119 425 110 425 q 102 425 95 426 q 89 427 86 429 q 83 431 81 434 q 79 437 79 440 l 68 667 q 68 670 70 673 q 73 676 78 678 q 83 680 91 681 q 99 682 110 682 q 122 682 130 681 q 138 681 143 678 q 148 676 151 673 q 153 670 152 667 z"},"=":{"x_min":0,"x_max":498,"ha":498,"o":"m 452 376 q 452 357 446 349 q 440 342 433 342 l 64 342 q 57 342 51 349 q 46 357 46 376 q 46 394 51 402 q 56 411 64 411 l 433 411 q 442 411 447 402 q 452 394 452 376 z m 452 187 q 452 167 446 160 q 440 152 433 152 l 64 152 q 57 152 51 160 q 46 167 46 187 q 46 205 51 213 q 56 221 64 221 l 433 221 q 442 221 447 213 q 452 205 452 187 z"},"a":{"x_min":0,"x_max":479,"ha":479,"o":"m 406 12 q 406 6 402 3 q 398 0 391 -1 q 384 -3 371 -3 q 358 -3 351 -1 q 343 0 340 3 q 336 6 336 12 l 336 56 q 308 25 272 8 q 237 -9 197 -9 q 163 -9 135 0 q 106 9 87 26 q 67 43 56 68 q 45 93 45 125 q 45 162 60 189 q 75 216 104 234 q 132 252 173 261 q 214 271 265 271 l 326 271 l 326 305 q 326 330 320 350 q 315 369 303 382 q 291 395 272 402 q 253 408 225 408 q 195 408 172 401 q 148 394 130 385 q 112 377 100 370 q 88 363 83 363 q 79 363 76 365 q 73 367 71 371 q 68 375 67 381 q 66 387 66 394 q 66 406 68 413 q 70 420 76 427 q 83 433 99 442 q 115 450 136 457 q 157 464 182 469 q 207 474 232 474 q 280 474 313 463 q 346 452 367 431 q 387 411 396 380 q 406 349 406 308 z m 326 212 l 257 212 q 224 212 199 207 q 175 201 159 190 q 143 179 135 164 q 127 148 127 128 q 127 94 149 74 q 171 54 210 54 q 242 54 269 70 q 296 86 326 119 z"},"L":{"x_min":0,"x_max":420,"ha":420,"o":"m 412 37 q 412 27 411 20 q 410 14 407 9 q 405 4 402 2 q 399 0 395 0 l 115 0 q 104 0 94 8 q 84 15 84 34 l 84 619 q 84 623 86 626 q 88 629 93 631 q 98 632 106 634 q 114 635 126 635 q 138 635 146 634 q 154 632 159 631 q 164 629 166 626 q 168 623 168 619 l 168 73 l 395 73 q 399 73 402 71 q 405 68 407 64 q 410 60 411 53 q 412 46 412 37 z"},"3":{"x_min":0,"x_max":507,"ha":507,"o":"m 446 181 q 446 137 431 102 q 416 67 388 42 q 359 18 318 4 q 276 -9 224 -9 q 192 -9 165 -4 q 137 1 116 8 q 94 15 80 23 q 66 30 62 34 q 59 37 57 41 q 55 44 53 49 q 52 54 51 61 q 50 68 50 78 q 50 96 54 103 q 57 109 63 109 q 68 109 81 102 q 94 94 114 85 q 134 76 161 68 q 188 60 222 60 q 254 60 278 68 q 303 77 319 92 q 336 107 344 128 q 353 148 353 173 q 353 200 342 221 q 332 243 311 258 q 291 274 261 282 q 232 291 194 291 l 134 291 q 130 291 127 292 q 123 294 120 298 q 118 302 116 308 q 114 314 114 325 q 114 334 116 340 q 117 346 120 350 q 123 354 126 355 q 129 357 134 357 l 189 357 q 221 357 247 365 q 272 374 290 389 q 308 405 318 427 q 327 448 327 475 q 327 495 321 512 q 314 530 302 543 q 289 557 269 564 q 250 572 224 572 q 195 572 172 563 q 148 555 129 545 q 111 535 99 527 q 86 518 82 518 q 78 518 75 519 q 73 521 71 524 q 69 528 69 534 q 68 541 68 552 q 68 559 68 565 q 69 570 70 574 q 72 579 74 582 q 76 585 80 590 q 85 595 99 604 q 113 612 134 621 q 155 629 182 635 q 209 641 240 641 q 284 641 317 630 q 351 619 373 598 q 395 578 406 549 q 417 521 417 486 q 417 456 409 430 q 401 405 386 385 q 371 365 349 351 q 327 337 298 332 l 298 331 q 331 328 358 315 q 385 302 405 282 q 424 263 435 237 q 446 210 446 181 z"},";":{"x_min":0,"x_max":268,"ha":268,"o":"m 194 391 q 194 375 192 364 q 189 354 183 347 q 177 340 167 338 q 158 335 143 335 q 127 335 117 338 q 107 340 102 347 q 96 354 94 364 q 91 375 91 391 q 91 407 94 418 q 96 429 102 436 q 107 442 117 445 q 127 448 143 448 q 158 448 167 445 q 177 442 183 436 q 189 429 192 418 q 194 407 194 391 z m 194 70 q 194 55 192 42 q 191 29 188 18 q 185 7 179 -4 q 173 -15 165 -27 l 99 -127 q 96 -131 93 -133 q 90 -136 85 -137 q 81 -139 75 -140 q 69 -141 60 -141 q 52 -141 46 -140 q 41 -140 38 -138 q 36 -136 35 -133 q 35 -130 37 -126 l 101 7 l 101 70 q 101 83 104 91 q 107 99 113 103 q 118 106 127 108 q 136 109 148 109 q 160 109 168 108 q 177 106 183 103 q 188 99 191 91 q 194 83 194 70 z"},"J":{"x_min":0,"x_max":319,"ha":319,"o":"m 236 159 q 236 122 229 90 q 223 59 206 37 q 189 15 162 3 q 135 -9 95 -9 q 82 -9 68 -7 q 55 -4 43 -1 q 32 3 24 7 q 16 11 13 14 q 10 17 9 20 q 7 23 6 27 q 4 31 4 37 q 3 43 3 52 q 3 63 4 70 q 5 77 7 81 q 9 85 11 87 q 14 89 18 89 q 22 89 28 85 q 34 82 43 77 q 51 73 62 69 q 74 65 89 65 q 105 65 117 70 q 129 74 137 85 q 145 96 148 116 q 152 136 152 167 l 152 620 q 152 623 154 626 q 156 629 161 631 q 166 633 174 634 q 182 635 194 635 q 206 635 214 634 q 223 633 227 631 q 232 629 234 626 q 236 623 236 620 z"},"V":{"x_min":0,"x_max":567,"ha":567,"o":"m 339 15 q 337 9 334 6 q 331 2 324 0 q 318 -1 309 -2 q 299 -3 285 -3 q 274 -3 266 -3 q 258 -2 252 -1 q 247 0 242 1 q 238 2 235 4 q 232 6 231 9 q 229 11 228 15 l 21 602 q 17 613 17 619 q 17 626 21 629 q 25 633 35 634 q 45 635 62 635 q 75 635 83 634 q 91 633 96 631 q 100 629 102 626 q 104 623 106 618 l 288 86 l 288 86 l 464 617 q 466 623 468 626 q 470 629 475 631 q 479 633 488 634 q 497 635 512 635 q 527 635 536 634 q 544 632 548 629 q 551 625 550 619 q 549 612 545 602 z"},"\"":{"x_min":0,"x_max":401,"ha":401,"o":"m 314 440 q 314 437 312 434 q 311 431 307 429 q 303 427 298 426 q 292 425 283 425 q 274 425 269 426 q 263 427 259 429 q 255 431 254 434 q 252 437 252 440 l 241 667 q 241 670 244 673 q 246 676 251 678 q 256 680 264 681 q 272 682 283 682 q 295 682 303 681 q 311 680 316 678 q 321 676 323 673 q 325 670 325 667 z m 141 440 q 141 437 139 434 q 138 431 134 429 q 130 427 124 426 q 119 425 110 425 q 101 425 95 426 q 89 427 86 429 q 82 431 81 434 q 79 437 79 440 l 68 667 q 68 670 70 673 q 73 676 78 678 q 83 680 91 681 q 99 682 110 682 q 133 682 143 678 q 152 674 152 667 z"},"7":{"x_min":0,"x_max":507,"ha":507,"o":"m 460 596 q 460 587 460 580 q 459 573 458 566 q 457 560 454 553 q 452 547 449 541 l 222 16 q 219 10 216 7 q 212 3 206 1 q 201 -1 192 -2 q 183 -3 170 -3 q 154 -3 145 -1 q 135 0 131 3 q 127 6 127 11 q 128 16 131 22 l 370 558 l 67 558 q 58 558 53 568 q 48 578 48 595 q 48 604 50 611 q 51 618 53 623 q 56 627 59 630 q 62 632 67 632 l 435 632 q 442 632 447 630 q 452 629 455 625 q 458 620 459 613 q 460 606 460 596 z"},"S":{"x_min":0,"x_max":459,"ha":459,"o":"m 423 177 q 423 133 407 98 q 391 63 362 39 q 333 15 293 3 q 254 -9 208 -9 q 177 -9 150 -4 q 123 1 101 9 q 80 17 66 25 q 51 34 46 40 q 40 45 37 54 q 35 63 35 79 q 35 89 36 96 q 37 104 39 108 q 41 112 43 114 q 46 116 50 116 q 57 116 70 107 q 82 99 102 89 q 121 80 149 71 q 176 62 212 62 q 240 62 262 70 q 285 77 302 91 q 318 104 327 124 q 335 143 335 168 q 335 195 323 214 q 311 233 291 247 q 271 262 245 274 q 220 286 193 298 q 166 311 141 326 q 115 341 95 361 q 75 382 63 409 q 50 437 50 476 q 50 515 65 546 q 79 577 105 598 q 130 619 166 630 q 201 641 242 641 q 263 641 284 637 q 306 634 324 628 q 343 622 358 614 q 373 606 377 602 q 382 597 383 594 q 385 592 386 588 q 387 583 387 578 q 388 572 388 562 q 388 554 387 547 q 386 540 385 535 q 383 531 381 529 q 378 526 375 526 q 369 526 358 533 q 346 540 330 549 q 313 557 290 564 q 268 571 239 571 q 213 571 193 564 q 174 557 161 545 q 148 534 142 518 q 136 501 136 483 q 136 457 148 438 q 160 419 180 404 q 201 390 227 377 q 252 365 279 353 q 306 340 332 325 q 358 311 378 290 q 398 270 411 242 q 423 215 423 177 z"},"}":{"x_min":0,"x_max":314,"ha":314,"o":"m 299 277 q 299 269 299 264 q 298 258 296 255 q 294 251 292 250 q 289 248 285 248 q 264 246 250 233 q 237 221 228 201 q 220 182 216 157 q 213 133 213 98 l 213 20 q 213 -32 208 -63 q 203 -94 191 -115 q 179 -136 158 -147 q 137 -157 105 -157 q 96 -157 89 -157 q 83 -156 73 -155 q 70 -155 67 -153 q 64 -151 62 -148 q 60 -145 59 -139 q 57 -133 57 -125 q 57 -117 59 -112 q 60 -106 62 -102 q 64 -98 67 -97 q 70 -95 74 -95 l 95 -95 q 106 -95 115 -90 q 123 -86 128 -74 q 134 -62 136 -42 q 139 -21 139 23 l 139 94 q 139 130 143 159 q 147 187 157 211 q 167 236 183 253 q 200 271 225 276 q 200 281 183 292 q 167 303 157 319 q 147 335 143 357 q 139 378 139 415 l 139 507 q 139 551 136 572 q 134 592 129 604 q 124 616 115 621 q 107 625 96 625 l 77 625 q 71 625 68 627 q 64 628 62 632 q 59 636 58 641 q 57 647 57 656 q 57 664 58 669 q 60 675 62 678 q 64 682 67 683 q 70 685 75 685 q 83 687 89 687 q 96 688 105 688 q 137 688 158 677 q 179 667 191 646 q 204 625 208 594 q 213 562 213 511 l 213 410 q 213 377 217 360 q 221 343 230 332 q 238 321 252 315 q 265 309 284 306 q 288 306 291 304 q 294 302 296 299 q 298 295 299 290 q 299 285 299 277 z"},"Z":{"x_min":0,"x_max":468,"ha":468,"o":"m 447 35 q 447 26 446 19 q 445 13 443 8 q 441 4 438 2 q 435 0 430 0 l 57 0 q 44 0 37 8 q 29 16 29 33 l 29 51 q 29 57 30 62 q 30 68 33 74 q 35 80 40 88 q 44 95 50 105 l 342 562 l 54 562 q 49 562 45 563 q 42 565 40 570 q 38 574 37 580 q 36 587 36 596 q 36 605 37 612 q 38 619 40 624 q 42 628 45 630 q 49 632 54 632 l 405 632 q 418 632 426 624 q 434 617 434 601 l 434 582 q 434 574 433 568 q 432 562 429 556 q 427 549 423 542 q 418 535 412 525 l 122 71 l 430 71 q 438 71 443 62 q 447 54 447 35 z"},"x":{"x_min":0,"x_max":433,"ha":433,"o":"m 408 21 q 412 15 412 10 q 412 5 407 2 q 402 0 393 -2 q 383 -3 368 -3 q 354 -3 345 -2 q 336 -1 331 0 q 326 2 323 5 q 321 7 319 11 l 213 185 l 108 11 q 106 7 104 5 q 101 2 96 0 q 91 -1 83 -2 q 74 -3 61 -3 q 46 -3 37 -2 q 28 0 24 2 q 20 5 20 10 q 21 15 25 21 l 162 236 l 32 442 q 28 449 28 454 q 28 458 32 462 q 37 465 47 466 q 56 467 72 467 q 86 467 94 466 q 103 465 108 464 q 113 462 115 460 q 118 458 120 454 l 220 291 l 321 454 q 323 457 326 459 q 328 462 332 464 q 336 465 344 466 q 352 467 365 467 q 379 467 388 466 q 397 465 401 462 q 406 459 405 455 q 405 450 400 442 l 272 238 z"},")":{"x_min":0,"x_max":303,"ha":303,"o":"m 238 262 q 238 207 231 153 q 224 99 210 46 q 197 -6 177 -57 q 157 -108 131 -158 q 129 -161 126 -163 q 124 -165 119 -166 q 114 -167 108 -168 q 102 -168 93 -168 q 80 -168 73 -167 q 66 -166 63 -163 q 60 -161 60 -156 q 60 -152 62 -146 q 107 -48 130 55 q 153 159 153 264 q 153 368 130 471 q 107 575 62 673 q 60 677 60 681 q 61 685 64 688 q 68 690 75 691 q 82 693 93 693 q 104 693 110 692 q 117 691 121 690 q 125 688 127 687 q 129 686 130 684 q 181 583 209 478 q 238 372 238 262 z"},"&":{"x_min":0,"x_max":682,"ha":682,"o":"m 53 167 q 53 193 60 218 q 67 242 83 264 q 99 287 124 308 q 149 330 185 351 q 165 377 151 399 q 137 420 128 439 q 119 458 115 474 q 111 491 111 508 q 111 539 122 566 q 132 594 155 615 q 177 636 213 649 q 249 661 299 661 q 342 661 374 652 q 405 643 426 625 q 447 608 457 584 q 468 560 468 530 q 468 501 458 478 q 449 454 429 431 q 408 409 376 386 q 344 364 299 340 q 315 320 335 298 q 354 276 376 254 q 397 232 419 211 q 441 190 463 170 q 473 184 480 200 q 488 217 494 236 q 500 255 503 274 q 506 294 506 314 l 506 332 q 506 336 508 340 q 509 343 513 345 q 517 347 525 348 q 532 349 544 349 q 555 349 563 349 q 570 348 575 346 q 580 345 582 341 q 584 337 584 331 l 584 319 q 584 292 580 265 q 575 239 567 214 q 559 188 547 166 q 535 143 521 123 q 542 105 559 94 q 575 82 587 75 q 598 67 606 64 q 613 62 618 62 q 623 62 627 62 q 632 62 635 61 q 637 59 639 53 q 640 47 640 35 q 640 22 640 15 q 639 8 638 4 q 637 0 634 -2 q 631 -4 623 -6 q 615 -8 603 -8 q 593 -8 581 -5 q 569 -1 554 7 q 538 16 517 30 q 497 45 469 67 q 448 51 426 37 q 403 22 377 12 q 352 2 323 -3 q 295 -9 263 -9 q 232 -9 204 -3 q 177 2 153 12 q 130 22 111 37 q 93 52 80 72 q 67 91 60 115 q 53 139 53 167 z m 197 515 q 197 501 200 488 q 204 474 212 459 q 219 444 230 427 q 241 410 256 389 q 292 409 316 426 q 340 443 355 458 q 370 474 376 490 q 383 505 383 523 q 383 537 378 550 q 373 563 361 573 q 350 583 333 589 q 316 595 292 595 q 266 595 248 588 q 230 582 219 571 q 208 560 202 545 q 197 530 197 515 z m 140 175 q 140 149 149 128 q 157 107 174 92 q 190 77 215 68 q 240 60 273 60 q 293 60 312 64 q 331 68 348 75 q 366 82 381 92 q 397 102 410 113 q 385 135 360 159 q 334 183 311 207 q 288 230 266 254 q 244 278 226 300 q 202 285 185 269 q 169 254 159 239 q 149 223 145 208 q 140 192 140 175 z m 0 632 z"},"_":{"x_min":0,"x_max":498,"ha":498,"o":"m 500 -146 q 500 -163 496 -170 q 492 -178 484 -178 l 14 -178 q 5 -178 1 -171 q -3 -164 -3 -146 q -3 -130 1 -122 q 5 -113 14 -113 l 484 -113 q 492 -113 496 -121 q 500 -129 500 -146 z"},"v":{"x_min":0,"x_max":452,"ha":452,"o":"m 435 453 q 435 451 435 448 q 435 446 434 444 q 434 441 433 438 q 432 436 431 432 l 281 15 q 279 9 276 6 q 273 2 267 0 q 260 -1 250 -2 q 241 -3 226 -3 q 211 -3 202 -2 q 192 -1 186 1 q 180 3 176 6 q 173 10 171 15 l 21 432 q 20 438 18 442 q 17 447 17 449 q 17 451 17 453 q 17 457 19 459 q 21 462 25 464 q 30 466 37 466 q 45 467 56 467 q 70 467 79 466 q 87 465 92 463 q 97 461 99 458 q 101 456 103 451 l 227 89 l 229 83 l 230 89 l 353 451 q 354 456 356 458 q 359 461 364 463 q 368 465 376 466 q 384 467 397 467 q 409 467 416 466 q 423 466 427 464 q 432 462 433 459 q 435 457 435 453 z"},"O":{"x_min":0,"x_max":662,"ha":662,"o":"m 613 323 q 613 247 595 185 q 577 124 541 80 q 505 37 451 14 q 397 -9 325 -9 q 253 -9 201 12 q 149 33 115 74 q 82 114 65 174 q 48 234 48 312 q 48 387 66 448 q 84 509 121 552 q 157 595 211 618 q 265 641 337 641 q 407 641 459 620 q 511 599 545 559 q 580 519 596 459 q 613 400 613 323 z m 525 317 q 525 371 515 417 q 506 463 484 497 q 461 531 424 550 q 387 569 333 569 q 278 569 241 549 q 204 528 180 494 q 157 460 147 414 q 137 369 137 318 q 137 263 146 216 q 156 169 178 135 q 200 101 237 82 q 273 63 329 63 q 384 63 422 84 q 459 104 482 139 q 505 174 515 220 q 525 266 525 317 z"},"(":{"x_min":0,"x_max":303,"ha":303,"o":"m 242 673 q 195 575 173 471 q 150 368 150 264 q 150 159 173 56 q 196 -47 241 -146 q 243 -152 243 -156 q 244 -161 240 -163 q 237 -166 230 -167 q 223 -168 210 -168 q 202 -168 195 -168 q 189 -167 184 -166 q 180 -165 177 -163 q 174 -161 172 -158 q 146 -108 126 -57 q 106 -6 92 46 q 79 99 72 153 q 65 207 65 262 q 65 317 73 371 q 80 425 94 478 q 108 531 128 582 q 148 633 173 684 q 173 686 176 687 q 178 688 182 690 q 186 691 192 692 q 199 693 210 693 q 221 693 228 691 q 235 690 239 688 q 243 685 243 681 q 244 677 242 673 z"},"C":{"x_min":0,"x_max":533,"ha":533,"o":"m 506 89 q 506 82 505 76 q 505 70 504 65 q 502 61 500 58 q 499 54 494 49 q 489 44 473 34 q 458 24 434 15 q 411 5 381 -1 q 351 -8 315 -8 q 254 -8 204 13 q 155 33 120 73 q 85 113 66 172 q 47 231 47 308 q 47 386 68 448 q 88 509 125 552 q 161 595 212 617 q 263 640 325 640 q 353 640 378 635 q 404 629 426 622 q 448 614 465 604 q 482 593 489 587 q 496 580 498 577 q 500 573 501 569 q 502 564 503 558 q 503 551 503 542 q 503 533 502 526 q 501 519 500 514 q 498 510 495 508 q 492 505 488 505 q 481 505 469 515 q 457 524 438 536 q 418 547 391 557 q 363 566 325 566 q 283 566 248 550 q 214 533 189 500 q 165 467 152 420 q 138 373 138 312 q 138 252 151 206 q 164 160 188 129 q 212 98 248 82 q 283 66 327 66 q 365 66 393 76 q 421 85 441 96 q 460 108 473 117 q 486 126 493 126 q 497 126 499 125 q 501 124 503 119 q 504 115 505 108 q 506 101 506 89 z"},"W":{"x_min":0,"x_max":890,"ha":890,"o":"m 689 19 q 687 12 683 8 q 679 3 672 1 q 666 -1 656 -2 q 646 -3 631 -3 q 616 -3 605 -2 q 595 -1 588 1 q 581 3 578 8 q 574 12 572 19 l 440 496 l 439 496 l 317 19 q 315 12 312 8 q 309 3 302 1 q 296 -1 286 -2 q 276 -3 260 -3 q 244 -3 233 -2 q 223 -1 216 1 q 209 3 205 8 q 202 12 200 19 l 33 602 q 30 613 30 620 q 30 626 34 629 q 38 633 47 634 q 57 635 72 635 q 87 635 96 634 q 105 633 110 631 q 114 629 116 626 q 118 623 119 617 l 261 88 l 261 88 l 396 616 q 397 622 400 625 q 402 629 407 631 q 412 633 421 634 q 430 635 444 635 q 458 635 466 634 q 474 633 479 631 q 484 629 486 625 q 488 622 490 616 l 635 88 l 636 88 l 775 617 q 776 622 778 625 q 779 629 784 631 q 789 633 797 634 q 806 635 820 635 q 834 635 843 634 q 852 632 855 629 q 859 625 859 619 q 859 613 856 602 z"},"A":{"x_min":0,"x_max":579,"ha":579,"o":"m 557 30 q 561 19 561 12 q 562 6 558 2 q 554 -1 545 -2 q 536 -3 521 -3 q 505 -3 496 -2 q 487 -1 483 0 q 478 2 476 5 q 474 8 472 12 l 417 166 l 155 166 l 103 14 q 102 10 99 7 q 97 3 92 1 q 87 -1 79 -2 q 70 -3 57 -3 q 42 -3 33 -2 q 24 0 21 3 q 17 6 17 13 q 18 20 21 30 l 233 617 q 235 623 239 626 q 242 629 248 631 q 254 633 263 634 q 273 635 288 635 q 303 635 313 634 q 324 633 330 631 q 336 629 340 626 q 343 622 345 617 z m 285 548 l 285 548 l 176 233 l 396 233 z"},"f":{"x_min":0,"x_max":305,"ha":305,"o":"m 315 632 q 315 623 314 617 q 313 612 312 608 q 311 605 309 604 q 307 603 304 603 q 301 603 296 605 q 291 607 283 610 q 276 612 266 615 q 256 617 243 617 q 225 617 212 611 q 199 605 191 593 q 184 580 180 560 q 177 541 177 512 l 177 464 l 275 464 q 279 464 281 463 q 284 461 286 457 q 289 453 290 446 q 291 440 291 431 q 291 413 287 405 q 282 397 275 397 l 177 397 l 177 12 q 177 8 175 6 q 173 3 168 1 q 164 -1 156 -2 q 148 -3 136 -3 q 125 -3 117 -2 q 109 -1 104 1 q 100 3 98 6 q 96 8 96 12 l 96 397 l 34 397 q 26 397 22 405 q 18 413 18 431 q 18 440 19 446 q 20 453 22 457 q 24 461 27 463 q 30 464 34 464 l 96 464 l 96 510 q 96 556 104 589 q 113 622 130 643 q 148 664 175 674 q 201 684 237 684 q 254 684 271 680 q 287 677 295 674 q 304 670 307 667 q 310 664 312 659 q 314 655 315 648 q 315 642 315 632 z"},"Q":{"x_min":0,"x_max":673,"ha":673,"o":"m 691 -56 q 691 -67 690 -74 q 688 -82 686 -86 q 684 -90 681 -92 q 678 -93 675 -93 q 665 -93 643 -85 q 622 -77 593 -62 q 565 -46 533 -24 q 500 -2 470 27 q 446 12 410 1 q 373 -9 325 -9 q 253 -9 201 12 q 149 33 115 73 q 82 114 65 174 q 48 234 48 312 q 48 388 66 448 q 84 509 121 552 q 157 595 211 618 q 265 641 337 641 q 405 641 457 620 q 508 599 543 559 q 578 519 596 459 q 613 400 613 324 q 613 284 609 248 q 604 212 594 180 q 584 147 569 120 q 554 93 533 71 q 569 42 596 25 q 623 9 640 0 q 658 -8 667 -11 q 677 -15 682 -20 q 687 -24 689 -33 q 691 -42 691 -56 z m 525 318 q 525 372 515 417 q 506 463 484 497 q 461 531 424 550 q 387 569 333 569 q 278 569 241 549 q 204 529 180 494 q 157 460 147 415 q 137 369 137 318 q 137 263 146 216 q 156 169 178 135 q 200 101 237 82 q 273 63 329 63 q 384 63 422 84 q 459 104 482 139 q 505 174 515 220 q 525 267 525 318 z"},"w":{"x_min":0,"x_max":715,"ha":715,"o":"m 689 453 q 689 449 688 444 q 688 439 685 432 l 556 15 q 554 9 551 6 q 548 2 542 0 q 537 -1 527 -2 q 517 -3 502 -3 q 487 -3 477 -2 q 467 -1 461 1 q 455 3 452 6 q 449 10 447 15 l 355 333 l 354 338 l 353 333 l 268 15 q 266 9 263 6 q 260 2 253 0 q 247 -1 237 -2 q 227 -3 212 -3 q 197 -3 188 -2 q 178 -1 172 1 q 166 3 163 6 q 160 10 159 15 l 30 432 q 28 439 27 444 q 26 449 26 453 q 26 457 28 460 q 30 462 34 464 q 39 466 47 466 q 55 467 66 467 q 80 467 88 466 q 96 465 101 464 q 105 462 107 459 q 109 456 110 451 l 216 89 l 217 84 l 218 89 l 315 451 q 316 456 319 459 q 321 462 325 464 q 330 465 337 466 q 345 467 357 467 q 369 467 376 466 q 384 465 388 464 q 393 462 395 459 q 396 456 397 452 l 502 89 l 503 84 l 504 89 l 608 451 q 609 456 612 459 q 614 462 618 464 q 623 465 631 466 q 639 467 652 467 q 664 467 671 466 q 678 466 682 464 q 686 462 688 459 q 689 457 689 453 z"},"-":{"x_min":0,"x_max":306,"ha":306,"o":"m 272 247 q 272 228 268 220 q 264 213 255 213 l 51 213 q 42 213 38 220 q 34 228 34 247 q 34 265 38 272 q 42 280 51 280 l 255 280 q 259 280 262 278 q 266 277 268 273 q 270 269 271 262 q 272 256 272 247 z"},"E":{"x_min":0,"x_max":488,"ha":488,"o":"m 436 35 q 436 26 435 19 q 434 13 431 8 q 429 4 426 2 q 422 0 418 0 l 115 0 q 104 0 94 8 q 84 15 84 34 l 84 598 q 84 617 94 624 q 104 632 115 632 l 415 632 q 419 632 422 630 q 425 628 427 624 q 429 619 430 613 q 432 606 432 596 q 432 587 430 581 q 429 574 427 570 q 425 566 422 564 q 419 562 415 562 l 168 562 l 168 364 l 380 364 q 384 364 387 362 q 390 359 392 355 q 395 352 396 345 q 396 338 396 329 q 396 320 396 313 q 395 307 392 303 q 390 299 387 298 q 384 296 380 296 l 168 296 l 168 70 l 418 70 q 422 70 426 68 q 429 66 431 62 q 434 58 435 51 q 436 44 436 35 z"},"s":{"x_min":0,"x_max":391,"ha":391,"o":"m 351 132 q 351 98 338 72 q 326 45 303 27 q 280 9 248 0 q 216 -9 178 -9 q 155 -9 134 -6 q 112 -2 95 4 q 79 9 67 15 q 55 21 50 26 q 44 31 42 40 q 40 49 40 64 q 40 73 41 80 q 42 86 43 90 q 44 94 47 95 q 50 97 53 97 q 59 97 69 91 q 80 84 95 76 q 110 68 131 62 q 152 55 180 55 q 200 55 217 60 q 233 64 246 73 q 258 81 264 94 q 271 107 271 125 q 271 144 261 157 q 252 169 236 179 q 221 189 201 197 q 182 204 161 212 q 140 221 120 231 q 101 242 85 257 q 69 272 60 293 q 50 314 50 343 q 50 369 60 393 q 70 417 90 434 q 110 452 140 463 q 170 474 210 474 q 228 474 246 471 q 263 468 277 463 q 292 459 302 454 q 312 449 317 445 q 322 441 323 438 q 325 435 326 431 q 327 428 327 422 q 328 417 328 409 q 328 401 327 395 q 327 389 325 385 q 323 381 321 379 q 318 377 315 377 q 311 377 303 383 q 294 388 281 394 q 268 400 250 406 q 232 411 209 411 q 189 411 173 406 q 158 402 148 393 q 138 385 133 373 q 127 361 127 348 q 127 329 137 316 q 147 303 163 293 q 178 283 198 275 q 218 268 239 259 q 260 251 280 241 q 300 230 316 216 q 332 201 341 181 q 351 160 351 132 z"},">":{"x_min":0,"x_max":498,"ha":498,"o":"m 465 280 q 465 272 464 265 q 463 259 461 254 q 460 249 458 246 q 455 244 452 242 l 69 49 q 63 46 60 46 q 56 46 53 49 q 51 53 50 60 q 49 67 49 78 q 49 92 50 100 q 50 108 52 114 q 54 119 57 122 q 61 125 66 127 l 381 282 l 68 433 q 62 436 58 438 q 54 441 52 446 q 50 452 50 460 q 49 469 49 483 q 49 496 50 503 q 51 510 53 513 q 56 516 60 516 q 63 515 69 512 l 454 318 q 458 316 462 306 q 465 297 465 280 z"},"l":{"x_min":0,"x_max":229,"ha":229,"o":"m 155 12 q 155 8 153 6 q 151 3 147 1 q 143 -1 135 -2 q 127 -3 115 -3 q 103 -3 95 -2 q 87 -1 83 1 q 78 3 76 6 q 75 8 75 12 l 75 665 q 75 668 76 671 q 78 674 83 676 q 87 678 95 679 q 103 680 115 680 q 127 680 135 679 q 143 678 147 676 q 151 674 153 671 q 155 668 155 665 z"},"8":{"x_min":0,"x_max":507,"ha":507,"o":""},"\\":{"x_min":0,"x_max":386,"ha":386,"o":"m 382 -109 q 385 -117 385 -122 q 385 -127 381 -129 q 377 -132 369 -133 q 361 -134 348 -134 q 335 -134 328 -133 q 320 -132 315 -131 q 311 -130 308 -127 q 306 -124 304 -120 l 9 690 q 5 698 5 703 q 5 708 9 710 q 13 713 21 714 q 29 714 42 714 q 55 714 63 714 q 71 713 76 712 q 81 710 83 708 q 85 705 86 701 z"},"e":{"x_min":0,"x_max":498,"ha":498,"o":"m 450 251 q 450 232 440 224 q 431 216 418 216 l 130 216 q 130 179 138 150 q 145 121 162 100 q 179 79 207 67 q 234 56 273 56 q 305 56 329 61 q 354 66 371 73 q 389 79 401 84 q 412 89 418 89 q 421 89 424 88 q 427 86 428 83 q 430 79 430 73 q 431 67 431 58 q 431 52 431 47 q 430 42 429 39 q 429 35 427 32 q 425 29 423 27 q 420 24 407 18 q 394 12 373 6 q 352 0 324 -5 q 296 -9 265 -9 q 211 -9 170 6 q 129 21 102 51 q 74 81 60 125 q 45 170 45 230 q 45 287 60 332 q 75 377 102 408 q 130 440 169 457 q 208 474 256 474 q 308 474 344 457 q 381 440 404 412 q 428 384 439 346 q 450 309 450 266 z m 369 275 q 370 338 341 375 q 311 411 253 411 q 223 411 201 399 q 178 388 163 370 q 148 351 140 326 q 131 302 130 275 z"},"b":{"x_min":0,"x_max":525,"ha":525,"o":"m 479 238 q 479 181 467 135 q 454 89 430 57 q 406 25 371 8 q 335 -9 290 -9 q 269 -9 251 -5 q 233 -1 216 8 q 199 18 182 32 q 165 46 146 66 l 146 12 q 146 8 144 5 q 142 2 138 1 q 133 -1 127 -2 q 120 -3 110 -3 q 100 -3 93 -2 q 86 -1 82 1 q 78 2 76 5 q 75 8 75 12 l 75 665 q 75 668 76 671 q 78 674 83 676 q 87 678 95 679 q 103 680 115 680 q 127 680 135 679 q 143 678 147 676 q 151 674 153 671 q 155 668 155 665 l 155 401 q 175 421 193 435 q 211 449 229 457 q 247 466 264 470 q 282 474 301 474 q 349 474 383 455 q 417 436 438 404 q 459 372 469 329 q 479 286 479 238 z m 394 229 q 394 262 389 294 q 384 326 371 350 q 358 375 337 389 q 316 404 285 404 q 270 404 254 400 q 239 396 224 385 q 208 375 191 359 q 174 343 155 318 l 155 143 q 188 103 219 81 q 249 60 282 60 q 312 60 333 75 q 355 89 368 114 q 382 138 388 168 q 394 198 394 229 z"},"%":{"x_min":0,"x_max":715,"ha":715,"o":""},"m":{"x_min":0,"x_max":799,"ha":799,"o":"m 727 12 q 727 8 725 6 q 723 3 718 1 q 714 -1 706 -2 q 698 -3 687 -3 q 674 -3 667 -2 q 659 -1 654 1 q 649 3 647 6 q 646 8 646 12 l 646 279 q 646 307 641 330 q 636 353 625 370 q 614 386 598 395 q 581 404 559 404 q 531 404 503 382 q 475 361 441 319 l 441 12 q 441 8 439 6 q 437 3 432 1 q 428 -1 420 -2 q 412 -3 400 -3 q 389 -3 381 -2 q 373 -1 368 1 q 364 3 362 6 q 360 8 360 12 l 360 279 q 360 307 355 330 q 350 353 339 370 q 328 386 312 395 q 295 404 273 404 q 245 404 217 382 q 188 361 155 319 l 155 12 q 155 8 153 6 q 151 3 147 1 q 143 -1 135 -2 q 127 -3 115 -3 q 103 -3 95 -2 q 87 -1 83 1 q 78 3 76 6 q 75 8 75 12 l 75 452 q 75 456 76 458 q 78 461 82 463 q 86 465 93 466 q 100 467 111 467 q 122 467 129 466 q 136 465 140 463 q 144 461 146 458 q 147 456 147 452 l 147 394 q 185 435 219 454 q 254 474 290 474 q 317 474 339 467 q 361 461 377 449 q 394 438 406 422 q 417 406 425 387 q 447 411 467 427 q 487 444 505 454 q 523 464 541 469 q 558 474 576 474 q 618 474 647 459 q 676 444 694 419 q 711 394 719 361 q 727 327 727 290 z"},"#":{"x_min":0,"x_max":498,"ha":498,"o":"m 480 433 q 480 424 479 418 q 478 413 475 409 q 473 405 470 404 q 467 402 463 402 l 399 402 l 380 240 l 437 240 q 444 240 448 232 q 453 225 453 208 q 453 200 452 194 q 450 188 448 185 q 446 181 443 179 q 440 178 437 178 l 372 178 l 351 11 q 351 7 349 5 q 348 2 344 0 q 340 -1 333 -2 q 326 -3 315 -3 q 304 -3 296 -2 q 289 -1 285 0 q 281 2 280 5 q 278 7 279 11 l 299 178 l 164 178 l 143 11 q 142 7 141 5 q 140 2 136 0 q 132 -1 125 -2 q 119 -3 107 -3 q 96 -3 88 -2 q 81 -1 77 0 q 73 2 72 5 q 70 7 71 11 l 91 178 l 34 178 q 27 178 22 185 q 18 192 18 208 q 18 217 19 223 q 21 229 22 232 q 24 236 27 238 q 30 240 34 240 l 100 240 l 120 402 l 61 402 q 53 402 49 409 q 44 417 44 432 q 44 449 49 457 q 53 464 61 464 l 127 464 l 147 621 q 147 624 149 627 q 151 629 155 631 q 159 633 167 634 q 174 635 185 635 q 197 635 204 634 q 210 633 214 631 q 218 629 219 627 q 220 624 220 621 l 199 464 l 335 464 l 354 621 q 354 624 356 627 q 358 629 362 631 q 366 633 374 634 q 381 635 393 635 q 404 635 411 634 q 418 633 421 631 q 425 629 426 627 q 427 624 427 621 l 407 464 l 463 464 q 471 464 475 456 q 480 449 480 433 z m 191 402 l 172 240 l 307 240 l 328 402 z"},",":{"x_min":0,"x_max":250,"ha":250,"o":"m 181 70 q 181 55 180 42 q 178 29 175 18 q 171 7 166 -4 q 160 -15 152 -27 l 85 -128 q 83 -131 79 -134 q 76 -136 72 -138 q 67 -140 61 -141 q 55 -142 45 -142 q 37 -142 31 -141 q 26 -140 23 -138 q 21 -137 21 -134 q 21 -131 22 -127 l 87 7 l 87 70 q 87 83 90 91 q 93 99 99 103 q 104 106 113 108 q 122 109 135 109 q 147 109 156 108 q 165 106 170 103 q 176 99 178 91 q 181 83 181 70 z"},"n":{"x_min":0,"x_max":525,"ha":525,"o":"m 453 12 q 453 8 451 6 q 449 3 445 1 q 440 -1 433 -2 q 425 -3 413 -3 q 401 -3 393 -2 q 385 -1 381 1 q 376 3 375 6 q 373 8 373 12 l 373 270 q 373 307 367 330 q 361 353 350 370 q 338 386 321 395 q 303 404 279 404 q 249 404 219 382 q 188 361 155 319 l 155 12 q 155 8 153 6 q 151 3 147 1 q 143 -1 135 -2 q 127 -3 115 -3 q 103 -3 95 -2 q 87 -1 83 1 q 78 3 76 6 q 75 8 75 12 l 75 452 q 75 456 76 458 q 78 461 82 463 q 86 465 93 466 q 100 467 111 467 q 122 467 129 466 q 136 465 140 463 q 144 461 146 458 q 147 456 147 452 l 147 394 q 185 435 221 454 q 258 474 296 474 q 340 474 370 459 q 400 444 418 419 q 437 394 445 361 q 453 327 453 280 z"},"h":{"x_min":0,"x_max":525,"ha":525,"o":"m 453 12 q 453 8 451 6 q 449 3 445 1 q 440 -1 433 -2 q 425 -3 413 -3 q 401 -3 393 -2 q 385 -1 381 1 q 376 3 375 6 q 373 8 373 12 l 373 270 q 373 307 367 330 q 361 353 350 370 q 338 386 321 395 q 303 404 279 404 q 249 404 219 382 q 188 361 155 319 l 155 12 q 155 8 153 6 q 151 3 147 1 q 143 -1 135 -2 q 127 -3 115 -3 q 103 -3 95 -2 q 87 -1 83 1 q 78 3 76 6 q 75 8 75 12 l 75 665 q 75 668 76 671 q 78 674 83 676 q 87 678 95 679 q 103 680 115 680 q 127 680 135 679 q 143 678 147 676 q 151 674 153 671 q 155 668 155 665 l 155 401 q 190 438 225 456 q 260 474 296 474 q 340 474 370 459 q 400 444 418 419 q 437 394 445 361 q 453 327 453 280 z"},"z":{"x_min":0,"x_max":395,"ha":395,"o":"m 355 34 q 355 25 354 18 q 352 12 350 8 q 348 3 345 2 q 341 0 337 0 l 67 0 q 57 0 50 7 q 43 14 43 30 l 43 46 q 43 53 44 59 q 45 64 47 69 q 49 75 53 81 q 56 87 61 95 l 255 396 l 67 396 q 59 396 54 405 q 50 413 50 431 q 50 439 51 446 q 52 453 54 457 q 56 461 59 463 q 62 464 67 464 l 319 464 q 324 464 328 463 q 333 461 335 458 q 338 455 340 449 q 342 444 342 436 l 342 420 q 342 413 341 407 q 340 401 338 396 q 336 390 333 384 q 329 377 324 370 l 131 68 l 337 68 q 341 68 344 66 q 348 64 350 61 q 352 57 354 50 q 355 43 355 34 z"},"B":{"x_min":0,"x_max":544,"ha":544,"o":"m 500 181 q 500 151 493 126 q 485 101 472 81 q 458 61 439 46 q 419 31 395 21 q 371 10 344 5 q 316 0 280 0 l 115 0 q 104 0 94 8 q 84 15 84 34 l 84 598 q 84 617 94 624 q 104 632 115 632 l 259 632 q 315 632 352 621 q 388 610 412 590 q 436 569 448 540 q 460 510 460 472 q 460 450 455 429 q 450 409 439 391 q 429 374 413 360 q 397 347 376 338 q 402 333 425 320 q 447 307 464 287 q 481 267 491 240 q 500 213 500 181 z m 374 464 q 374 487 368 505 q 361 524 348 537 q 334 550 312 557 q 290 563 254 563 l 167 563 l 167 359 l 263 359 q 295 359 315 367 q 335 376 349 390 q 362 405 368 424 q 374 443 374 464 z m 412 176 q 412 205 403 226 q 394 248 377 262 q 359 277 333 284 q 307 292 268 292 l 167 292 l 167 69 l 289 69 q 318 69 339 76 q 361 83 377 96 q 394 110 403 130 q 412 150 412 176 z"},"K":{"x_min":0,"x_max":520,"ha":520,"o":"m 496 14 q 496 10 494 7 q 493 3 488 1 q 483 0 475 -2 q 466 -3 453 -3 q 436 -3 425 -1 q 415 0 409 4 q 404 8 400 13 l 168 329 l 168 13 q 168 9 166 6 q 164 3 159 1 q 154 0 146 -2 q 138 -3 126 -3 q 114 -3 106 -2 q 98 0 93 1 q 88 3 86 6 q 84 9 84 13 l 84 619 q 84 623 86 626 q 88 629 93 631 q 98 632 106 634 q 114 635 126 635 q 138 635 146 634 q 154 632 159 631 q 164 629 166 626 q 168 623 168 619 l 168 338 l 392 619 q 395 624 398 626 q 402 629 408 631 q 414 633 422 634 q 430 635 442 635 q 455 635 463 634 q 471 632 475 630 q 480 628 482 625 q 483 623 483 619 q 483 613 480 606 q 477 600 468 589 l 259 338 l 484 39 q 493 26 494 21 q 496 17 496 14 z"},"R":{"x_min":0,"x_max":543,"ha":543,"o":"m 505 13 q 505 9 504 6 q 502 3 498 1 q 493 -1 484 -2 q 475 -3 460 -3 q 448 -3 440 -2 q 432 -1 427 1 q 422 3 419 7 q 417 11 415 17 l 356 166 q 346 191 335 213 q 324 234 309 249 q 294 265 273 273 q 253 282 224 282 l 168 282 l 168 13 q 168 9 166 6 q 164 3 159 1 q 154 0 146 -2 q 138 -3 126 -3 q 114 -3 106 -2 q 98 0 93 1 q 88 3 86 6 q 84 9 84 13 l 84 598 q 84 617 94 624 q 104 632 115 632 l 250 632 q 273 632 289 631 q 305 629 318 628 q 354 622 383 608 q 411 594 430 573 q 449 552 458 525 q 468 498 468 465 q 468 434 459 408 q 451 383 435 364 q 418 345 396 331 q 374 316 346 307 q 361 300 374 289 q 387 279 398 264 q 409 250 418 230 q 428 211 438 188 l 495 48 q 501 31 503 24 q 505 17 505 13 z m 379 457 q 379 494 362 519 q 346 545 307 556 q 294 560 279 561 q 264 562 239 562 l 168 562 l 168 350 l 250 350 q 283 350 307 358 q 332 366 348 380 q 364 395 371 414 q 379 434 379 457 z"},"T":{"x_min":0,"x_max":487,"ha":487,"o":"m 480 596 q 480 586 479 580 q 478 573 476 569 q 474 564 470 562 q 467 561 463 561 l 286 561 l 286 13 q 286 9 284 6 q 282 3 277 1 q 272 0 264 -2 q 256 -3 244 -3 q 232 -3 224 -2 q 215 0 210 1 q 206 3 204 6 q 202 9 202 13 l 202 561 l 24 561 q 20 561 17 562 q 14 564 12 569 q 10 573 9 580 q 7 586 7 596 q 7 605 9 612 q 10 619 12 624 q 14 628 17 630 q 20 632 24 632 l 463 632 q 467 632 470 630 q 474 628 476 624 q 478 619 479 612 q 480 605 480 596 z"},"P":{"x_min":0,"x_max":517,"ha":517,"o":"m 472 447 q 472 399 457 361 q 441 323 412 296 q 383 270 341 255 q 298 240 240 240 l 168 240 l 168 13 q 168 9 166 6 q 164 3 159 1 q 154 0 146 -2 q 138 -3 126 -3 q 114 -3 106 -2 q 98 0 93 1 q 88 3 86 6 q 84 9 84 13 l 84 596 q 84 615 94 624 q 104 632 117 632 l 252 632 q 273 632 292 630 q 311 628 336 623 q 362 617 388 602 q 415 586 434 564 q 452 542 462 512 q 472 482 472 447 z m 384 440 q 384 479 369 504 q 355 530 334 543 q 312 556 290 559 q 267 562 246 562 l 168 562 l 168 309 l 244 309 q 282 309 307 319 q 332 329 349 346 q 366 363 375 387 q 384 412 384 440 z"},"|":{"x_min":0,"x_max":460,"ha":460,"o":"m 268 -163 q 268 -167 266 -169 q 265 -172 260 -174 q 256 -176 249 -177 q 241 -178 230 -178 q 219 -178 212 -177 q 205 -176 200 -174 q 196 -172 194 -169 q 192 -167 192 -163 l 192 685 q 192 688 194 691 q 196 694 200 696 q 205 698 212 699 q 219 700 230 700 q 241 700 249 699 q 256 698 260 696 q 265 694 266 691 q 268 688 268 685 z"},"t":{"x_min":0,"x_max":335,"ha":335,"o":"m 303 44 q 303 30 301 22 q 299 14 295 10 q 292 6 284 2 q 276 -1 266 -3 q 256 -5 245 -7 q 233 -8 222 -8 q 188 -8 164 1 q 139 10 124 28 q 108 46 101 74 q 94 103 94 141 l 94 397 l 32 397 q 25 397 21 405 q 16 413 16 431 q 16 440 17 446 q 19 453 21 457 q 22 461 26 463 q 29 464 33 464 l 94 464 l 94 569 q 94 572 95 575 q 97 578 102 580 q 106 583 114 583 q 122 584 134 584 q 146 584 154 583 q 162 583 166 580 q 170 578 172 575 q 174 572 174 569 l 174 464 l 287 464 q 291 464 294 463 q 297 461 299 457 q 301 453 302 446 q 303 440 303 431 q 303 413 299 405 q 294 397 287 397 l 174 397 l 174 152 q 174 107 188 84 q 201 61 236 61 q 247 61 256 63 q 265 65 271 67 q 278 70 283 72 q 288 74 292 74 q 294 74 297 73 q 299 72 300 68 q 301 65 302 59 q 303 53 303 44 z"},"M":{"x_min":0,"x_max":855,"ha":855,"o":"m 771 13 q 771 9 769 6 q 767 3 762 1 q 757 0 750 -2 q 742 -3 730 -3 q 719 -3 711 -2 q 703 0 698 1 q 693 3 691 6 q 689 9 689 13 l 689 563 l 688 563 l 463 10 q 462 7 459 4 q 457 2 451 0 q 446 -1 439 -2 q 432 -3 422 -3 q 412 -3 405 -2 q 397 -1 393 1 q 388 2 385 5 q 382 7 381 10 l 166 563 l 166 563 l 166 13 q 166 9 164 6 q 162 3 157 1 q 152 0 144 -2 q 136 -3 124 -3 q 112 -3 104 -2 q 97 0 92 1 q 87 3 86 6 q 84 9 84 13 l 84 594 q 84 614 95 623 q 105 632 119 632 l 169 632 q 185 632 197 629 q 208 626 217 620 q 226 613 232 604 q 238 594 242 581 l 425 123 l 428 123 l 618 579 q 624 594 630 604 q 636 614 644 620 q 651 626 661 629 q 670 632 682 632 l 735 632 q 743 632 749 630 q 756 627 760 623 q 765 618 768 611 q 771 604 771 594 z"},"g":{"x_min":0,"x_max":471,"ha":471,"o":"m 442 432 q 442 415 437 407 q 433 399 425 399 l 362 399 q 379 382 386 361 q 393 339 393 316 q 393 278 381 249 q 369 220 346 199 q 323 179 292 168 q 261 158 223 158 q 196 158 172 165 q 147 172 134 183 q 125 174 120 163 q 114 151 114 137 q 114 120 130 108 q 146 97 172 96 l 287 91 q 320 90 347 82 q 375 74 395 59 q 415 44 426 23 q 437 1 437 -28 q 437 -58 424 -85 q 412 -113 385 -134 q 359 -154 319 -166 q 278 -178 223 -178 q 170 -178 133 -169 q 95 -160 71 -145 q 47 -129 37 -107 q 26 -85 26 -60 q 26 -44 30 -29 q 34 -14 42 0 q 50 14 62 26 q 74 39 89 51 q 65 63 54 82 q 42 100 42 122 q 42 151 55 175 q 67 198 85 217 q 70 235 61 258 q 52 280 52 312 q 52 350 65 380 q 78 410 100 430 q 123 451 154 462 q 186 473 223 473 q 243 473 260 470 q 277 468 292 464 l 425 464 q 434 464 438 456 q 442 448 442 432 z m 316 316 q 316 361 291 386 q 267 411 221 411 q 198 411 180 403 q 163 396 152 382 q 140 368 135 350 q 129 333 129 313 q 129 270 154 245 q 178 220 223 220 q 247 220 264 227 q 282 235 293 248 q 305 262 310 279 q 316 297 316 316 z m 356 -32 q 356 -4 333 11 q 310 27 271 28 l 157 32 q 141 20 131 9 q 121 -2 115 -12 q 109 -22 107 -32 q 105 -42 105 -52 q 105 -84 137 -100 q 169 -117 227 -117 q 264 -117 288 -110 q 313 -103 328 -91 q 343 -79 350 -64 q 356 -49 356 -32 z"},"j":{"x_min":0,"x_max":239,"ha":239,"o":"m 165 -7 q 165 -56 157 -86 q 150 -116 134 -137 q 119 -157 94 -168 q 70 -178 35 -178 q 20 -178 9 -176 q -2 -174 -8 -172 q -14 -169 -16 -166 q -19 -163 -20 -159 q -21 -155 -21 -150 q -21 -146 -21 -140 q -21 -131 -20 -125 q -20 -118 -18 -114 q -16 -110 -14 -109 q -12 -107 -8 -107 q -5 -107 3 -108 q 12 -109 23 -109 q 39 -109 51 -104 q 62 -100 69 -89 q 77 -78 80 -60 q 83 -42 83 -7 l 83 452 q 83 455 85 458 q 87 461 92 463 q 97 465 104 466 q 112 467 124 467 q 136 467 144 466 q 151 465 156 463 q 161 461 163 458 q 165 455 165 452 z m 174 600 q 174 572 163 562 q 152 551 124 551 q 95 551 85 561 q 75 571 75 599 q 75 627 85 638 q 96 648 125 648 q 153 648 164 638 q 174 628 174 600 z"},"i":{"x_min":0,"x_max":229,"ha":229,"o":"m 155 12 q 155 8 153 6 q 151 3 147 1 q 143 -1 135 -2 q 127 -3 115 -3 q 103 -3 95 -2 q 87 -1 83 1 q 78 3 76 6 q 75 8 75 12 l 75 452 q 75 455 76 458 q 78 461 83 463 q 87 465 95 466 q 103 467 115 467 q 127 467 135 466 q 143 465 147 463 q 151 461 153 458 q 155 455 155 452 z m 165 600 q 165 572 154 562 q 143 551 114 551 q 86 551 75 561 q 65 571 65 599 q 65 627 76 638 q 86 648 115 648 q 144 648 154 638 q 165 628 165 600 z"},"y":{"x_min":0,"x_max":453,"ha":453,"o":"m 275 0 l 216 -162 q 213 -169 201 -174 q 189 -178 165 -178 q 152 -178 145 -177 q 137 -175 133 -172 q 128 -169 128 -165 q 127 -160 130 -153 l 191 0 q 187 2 183 6 q 179 11 177 16 l 21 436 q 17 446 17 452 q 17 458 21 461 q 24 464 33 466 q 42 467 57 467 q 71 467 80 466 q 88 465 93 463 q 98 461 100 458 q 102 454 104 448 l 230 95 l 231 95 l 353 450 q 355 459 360 462 q 364 464 372 466 q 380 467 396 467 q 410 467 418 466 q 427 464 431 461 q 436 458 436 452 q 436 446 433 437 z"},"@":{"x_min":0,"x_max":894,"ha":894,"o":"m 809 375 q 809 342 804 308 q 800 273 791 240 q 782 208 767 178 q 751 149 729 127 q 708 105 678 93 q 649 81 612 81 q 592 81 575 85 q 558 90 544 99 q 531 107 522 121 q 513 135 510 153 q 490 134 472 120 q 454 106 436 97 q 418 88 402 84 q 385 81 369 81 q 348 81 332 85 q 315 89 303 97 q 291 105 282 117 q 273 128 267 143 q 261 158 259 175 q 256 193 256 213 q 256 234 260 261 q 263 289 271 317 q 279 346 292 374 q 306 401 326 423 q 347 445 375 458 q 402 472 439 472 q 455 472 469 468 q 484 464 497 457 q 510 449 522 437 q 535 425 547 409 l 556 452 q 558 459 564 462 q 571 466 590 466 q 599 466 605 465 q 611 464 614 462 q 618 460 619 458 q 620 456 619 452 l 576 228 q 568 185 580 165 q 591 145 624 145 q 644 145 660 155 q 676 165 688 182 q 701 199 709 221 q 717 244 723 269 q 728 294 730 321 q 733 347 733 372 q 733 414 721 452 q 710 491 682 520 q 654 549 608 566 q 561 583 491 583 q 433 583 388 571 q 343 558 309 536 q 275 515 250 486 q 226 458 209 426 q 192 394 182 361 q 172 327 167 296 q 161 265 159 238 q 158 210 158 191 q 158 137 170 92 q 183 47 213 15 q 244 -18 296 -36 q 348 -54 426 -54 q 462 -54 491 -50 q 520 -46 541 -41 q 562 -37 575 -32 q 588 -28 593 -28 q 596 -28 598 -30 q 601 -32 602 -35 q 603 -39 604 -45 q 604 -50 604 -59 q 604 -65 604 -70 q 604 -74 603 -78 q 602 -82 600 -84 q 598 -87 595 -90 q 592 -92 578 -97 q 564 -102 541 -107 q 517 -112 485 -115 q 454 -119 416 -119 q 324 -119 261 -97 q 198 -76 158 -36 q 118 4 101 61 q 83 117 83 186 q 83 211 86 244 q 88 277 96 315 q 104 352 117 391 q 131 430 153 467 q 174 504 205 537 q 236 570 279 594 q 321 619 375 633 q 430 647 499 647 q 579 647 637 628 q 695 609 733 574 q 771 539 790 488 q 809 438 809 375 z m 525 344 q 507 375 487 392 q 468 408 443 408 q 422 408 406 398 q 389 388 377 372 q 365 356 356 336 q 348 316 342 295 q 337 274 335 255 q 333 235 333 220 q 333 184 345 164 q 358 145 389 145 q 401 145 413 149 q 425 153 439 161 q 453 170 468 184 q 483 198 502 217 z m 0 632 z"},".":{"x_min":0,"x_max":252,"ha":252,"o":"m 179 53 q 179 19 167 7 q 156 -4 125 -4 q 96 -4 85 7 q 74 18 74 52 q 74 86 85 98 q 97 109 127 109 q 156 109 167 98 q 179 87 179 53 z"},"p":{"x_min":0,"x_max":525,"ha":525,"o":"m 479 239 q 479 181 467 135 q 454 89 430 57 q 406 25 370 8 q 334 -9 289 -9 q 269 -9 252 -5 q 236 -1 220 7 q 204 15 188 28 q 173 41 155 58 l 155 -162 q 155 -166 153 -169 q 151 -172 147 -174 q 143 -176 135 -177 q 127 -178 115 -178 q 103 -178 95 -177 q 87 -176 83 -174 q 78 -172 76 -169 q 75 -166 75 -162 l 75 452 q 75 456 76 459 q 78 461 82 463 q 86 465 93 466 q 100 467 110 467 q 120 467 127 466 q 133 465 138 463 q 142 461 144 459 q 146 456 146 452 l 146 393 q 166 413 184 428 q 203 443 221 453 q 240 463 260 469 q 280 474 302 474 q 350 474 383 455 q 417 437 438 404 q 459 372 469 329 q 479 287 479 239 z m 394 229 q 394 263 389 295 q 384 326 371 351 q 359 375 338 390 q 317 404 286 404 q 270 404 255 400 q 240 395 224 385 q 208 375 191 359 q 174 342 155 318 l 155 144 q 188 103 218 82 q 248 60 281 60 q 311 60 333 75 q 354 89 368 114 q 381 138 388 168 q 394 199 394 229 z"},"X":{"x_min":0,"x_max":519,"ha":519,"o":"m 486 30 q 493 20 494 13 q 495 7 491 3 q 486 0 476 -2 q 466 -3 450 -3 q 434 -3 425 -2 q 417 -1 411 0 q 406 2 404 5 q 401 8 399 12 l 258 264 l 116 12 q 114 8 111 5 q 108 2 103 0 q 98 -1 89 -2 q 80 -3 65 -3 q 49 -3 40 -2 q 31 0 27 3 q 23 7 25 13 q 26 20 32 30 l 205 321 l 40 602 q 34 612 32 619 q 31 625 35 629 q 39 633 48 634 q 58 635 75 635 q 90 635 99 634 q 108 633 114 632 q 119 630 122 627 q 124 624 127 620 l 263 383 l 397 620 q 400 624 402 627 q 405 630 409 632 q 414 633 422 634 q 431 635 445 635 q 460 635 469 634 q 479 632 483 629 q 487 625 486 619 q 485 612 479 602 l 315 323 z"},"*":{"x_min":0,"x_max":498,"ha":498,"o":"m 411 457 q 417 454 417 445 q 417 437 405 417 q 394 398 387 394 q 380 389 374 394 l 270 469 l 284 341 q 285 334 277 330 q 270 326 247 326 q 225 326 217 330 q 209 334 210 341 l 224 469 l 121 394 q 115 389 107 394 q 100 398 89 417 q 78 437 77 445 q 77 454 84 457 l 202 509 l 84 561 q 77 564 77 573 q 78 581 89 600 q 100 619 107 624 q 115 628 121 624 l 224 548 l 210 676 q 209 684 217 688 q 225 691 247 691 q 270 691 277 688 q 285 684 284 676 l 270 548 l 374 624 q 380 628 387 624 q 394 619 405 600 q 417 581 417 573 q 417 564 411 561 l 293 509 z"},"Y":{"x_min":0,"x_max":487,"ha":487,"o":"m 286 246 l 286 13 q 286 9 284 6 q 282 3 277 1 q 272 0 264 -2 q 255 -3 244 -3 q 231 -3 223 -2 q 215 0 210 1 q 205 3 203 6 q 201 9 201 13 l 201 246 l 22 602 q 17 613 16 620 q 15 626 18 629 q 22 633 31 634 q 41 635 57 635 q 72 635 81 634 q 90 633 95 631 q 101 629 103 626 q 106 623 108 618 l 196 437 q 208 411 220 382 q 232 354 245 325 l 246 325 q 257 353 269 381 q 281 408 293 435 l 381 618 q 383 623 385 626 q 388 629 393 631 q 397 633 406 634 q 414 635 427 635 q 444 635 454 634 q 464 632 468 629 q 472 625 471 619 q 470 613 464 602 z"},"c":{"x_min":0,"x_max":423,"ha":423,"o":"m 391 79 q 391 71 390 65 q 390 59 388 54 q 387 50 385 47 q 384 44 378 38 q 372 32 357 23 q 342 14 324 7 q 306 0 284 -5 q 263 -9 240 -9 q 192 -9 156 6 q 119 22 94 52 q 70 82 57 126 q 44 169 44 227 q 44 292 60 338 q 76 385 103 415 q 131 444 168 459 q 206 473 249 473 q 270 473 290 469 q 310 465 326 459 q 343 453 356 444 q 369 436 375 430 q 380 424 383 421 q 385 417 386 413 q 388 408 388 402 q 389 396 389 388 q 389 369 384 361 q 380 354 374 354 q 366 354 357 362 q 347 370 333 379 q 318 389 297 397 q 276 405 248 405 q 190 405 159 361 q 128 316 128 231 q 128 188 136 156 q 144 125 160 103 q 175 82 198 71 q 221 61 250 61 q 278 61 299 69 q 320 78 335 89 q 351 99 361 108 q 372 116 377 116 q 381 116 383 114 q 386 112 387 108 q 389 103 390 96 q 391 89 391 79 z"},"!":{"x_min":0,"x_max":326,"ha":326,"o":"m 217 182 q 217 178 216 175 q 214 172 209 170 q 205 168 198 167 q 191 167 181 167 q 171 167 164 167 q 157 168 153 170 q 148 172 147 175 q 145 178 145 182 l 137 648 q 136 654 138 658 q 140 663 145 666 q 150 668 159 670 q 167 671 181 671 q 194 671 203 669 q 211 668 217 665 q 222 662 224 658 q 226 654 226 648 z m 232 51 q 232 35 230 24 q 228 14 222 7 q 216 0 206 -2 q 196 -5 181 -5 q 166 -5 156 -2 q 146 0 140 7 q 134 14 132 24 q 130 35 130 51 q 130 67 132 78 q 134 89 140 95 q 146 101 156 104 q 166 106 181 106 q 196 106 206 104 q 216 101 222 95 q 228 89 230 78 q 232 67 232 51 z"},"/":{"x_min":0,"x_max":386,"ha":386,"o":"m 82 -118 q 80 -124 77 -128 q 74 -131 69 -133 q 64 -135 57 -136 q 50 -137 40 -137 q 27 -137 19 -135 q 11 -134 7 -131 q 2 -127 1 -123 q 0 -118 3 -112 l 299 698 q 301 705 304 708 q 307 712 312 714 q 316 716 324 717 q 331 718 341 718 q 354 718 361 716 q 369 714 374 711 q 378 708 379 704 q 380 699 377 692 z"},"[":{"x_min":0,"x_max":307,"ha":307,"o":"m 263 -127 q 263 -143 260 -150 q 256 -156 249 -156 l 124 -156 q 118 -156 113 -155 q 107 -153 103 -149 q 99 -145 96 -138 q 93 -132 93 -122 l 93 649 q 93 658 96 665 q 99 671 103 676 q 107 680 113 681 q 118 683 124 683 l 249 683 q 252 683 255 682 q 257 680 259 676 q 261 672 262 667 q 263 661 263 653 q 263 637 260 630 q 256 624 249 624 l 169 624 l 169 -97 l 249 -97 q 252 -97 255 -99 q 257 -100 259 -104 q 261 -107 262 -113 q 263 -119 263 -127 z"},"6":{"x_min":0,"x_max":507,"ha":507,"o":""},"r":{"x_min":0,"x_max":349,"ha":349,"o":"m 332 423 q 332 412 331 405 q 331 397 329 393 q 328 389 325 387 q 323 385 319 385 q 315 385 310 387 q 304 389 297 391 q 290 394 281 396 q 272 397 262 397 q 250 397 238 393 q 227 388 214 376 q 201 365 187 347 q 172 328 155 301 l 155 12 q 155 8 153 6 q 151 3 147 1 q 143 -1 135 -2 q 127 -3 115 -3 q 103 -3 95 -2 q 87 -1 83 1 q 78 3 76 6 q 75 8 75 12 l 75 452 q 75 456 76 458 q 78 461 82 463 q 86 465 93 466 q 100 467 111 467 q 122 467 129 466 q 136 465 140 463 q 144 461 146 458 q 147 456 147 452 l 147 388 q 166 414 181 431 q 197 447 211 457 q 226 466 240 470 q 253 474 268 474 q 274 474 282 473 q 290 472 299 470 q 308 468 315 466 q 322 463 325 461 q 328 458 329 456 q 330 454 330 451 q 331 447 331 441 q 332 434 332 423 z"},"2":{"x_min":0,"x_max":507,"ha":507,"o":"m 451 36 q 451 27 450 21 q 449 14 447 9 q 444 4 441 2 q 437 0 433 0 l 83 0 q 77 0 72 2 q 66 3 63 7 q 59 11 57 19 q 56 26 56 37 q 56 46 56 54 q 57 61 60 67 q 62 72 66 78 q 69 83 75 90 l 198 220 q 240 265 266 300 q 292 336 305 365 q 319 395 324 418 q 328 442 328 463 q 328 484 321 503 q 314 522 302 536 q 289 550 269 559 q 250 567 224 567 q 194 567 171 559 q 147 550 129 541 q 111 531 99 522 q 87 514 82 514 q 78 514 75 516 q 73 518 71 522 q 69 527 68 534 q 67 542 67 552 q 67 559 68 564 q 68 570 70 574 q 71 578 73 581 q 75 584 81 590 q 86 595 101 604 q 115 612 137 621 q 159 629 185 635 q 211 641 240 641 q 286 641 320 628 q 354 615 377 593 q 400 570 411 541 q 422 511 422 477 q 422 447 417 417 q 412 387 394 352 q 377 317 344 274 q 312 231 257 176 l 157 71 l 432 71 q 436 71 440 69 q 443 67 446 62 q 449 58 450 52 q 451 45 451 36 z"},"{":{"x_min":0,"x_max":314,"ha":314,"o":"m 283 -125 q 283 -133 282 -139 q 281 -145 279 -148 q 277 -151 274 -153 q 271 -155 268 -155 q 259 -157 253 -157 q 246 -157 237 -157 q 204 -157 183 -147 q 162 -136 150 -115 q 138 -95 133 -63 q 129 -32 129 20 l 129 120 q 129 153 125 174 q 121 194 112 210 q 104 225 90 235 q 77 244 58 246 q 53 247 50 249 q 47 250 46 254 q 44 257 43 263 q 42 269 42 276 q 42 284 43 289 q 43 294 45 298 q 47 302 50 303 q 53 305 57 306 q 93 310 111 341 q 129 372 129 432 l 129 511 q 129 562 134 593 q 138 625 151 646 q 163 667 184 677 q 205 688 237 688 q 246 688 252 687 q 258 687 267 685 q 271 685 274 683 q 277 682 279 678 q 281 675 282 669 q 283 664 283 656 q 283 647 282 642 q 281 636 279 632 q 277 628 274 627 q 271 625 267 625 l 247 625 q 235 625 227 621 q 218 617 213 605 q 208 593 205 572 q 203 551 203 507 l 203 436 q 203 400 199 375 q 195 350 185 330 q 175 310 158 296 q 142 281 116 276 q 142 271 158 257 q 175 242 185 222 q 195 202 199 177 q 203 152 203 116 l 203 23 q 203 -20 205 -41 q 208 -62 213 -74 q 218 -86 226 -90 q 234 -95 245 -95 l 266 -95 q 270 -95 273 -97 q 277 -98 279 -102 q 281 -105 282 -111 q 283 -117 283 -125 z"},"9":{"x_min":0,"x_max":507,"ha":507,"o":"m 456 341 q 456 300 451 258 q 446 216 435 177 q 423 138 403 104 q 383 70 353 45 q 323 20 282 5 q 241 -9 186 -9 q 165 -9 145 -7 q 125 -4 110 0 q 94 4 83 8 q 72 13 67 17 q 62 21 60 29 q 58 37 58 49 q 58 60 59 66 q 60 73 61 76 q 62 80 65 81 q 68 82 72 82 q 77 82 87 78 q 97 75 112 70 q 126 66 146 62 q 167 59 191 59 q 239 59 273 77 q 307 95 328 126 q 350 157 360 197 q 371 238 372 283 q 346 268 310 256 q 274 244 227 244 q 174 244 138 259 q 103 273 81 298 q 59 323 50 357 q 40 391 40 432 q 40 474 52 511 q 64 549 90 578 q 116 607 156 624 q 196 641 252 641 q 292 641 322 631 q 353 621 375 602 q 397 583 413 557 q 429 530 438 497 q 448 463 452 424 q 456 384 456 341 z m 371 350 q 371 413 362 455 q 354 498 338 524 q 322 551 298 562 q 275 574 244 574 q 212 574 190 563 q 167 551 153 532 q 139 513 132 488 q 125 464 125 438 q 125 409 131 385 q 137 361 151 345 q 165 328 187 319 q 208 310 241 310 q 277 310 312 321 q 346 332 371 350 z"}," ":{"x_min":0,"x_max":226,"ha":226,"o":""},"I":{"x_min":0,"x_max":252,"ha":252,"o":"m 168 13 q 168 9 166 6 q 164 3 159 1 q 154 0 146 -2 q 138 -3 126 -3 q 114 -3 106 -2 q 98 0 93 1 q 88 3 86 6 q 84 9 84 13 l 84 619 q 84 623 86 626 q 88 629 94 631 q 99 632 107 634 q 115 635 126 635 q 138 635 146 634 q 154 632 159 631 q 164 629 166 626 q 168 623 168 619 z"},"H":{"x_min":0,"x_max":623,"ha":623,"o":"m 539 13 q 539 9 537 6 q 535 3 530 1 q 525 0 517 -2 q 509 -3 498 -3 q 485 -3 477 -2 q 469 0 464 1 q 459 3 458 6 q 456 9 456 13 l 456 293 l 168 293 l 168 13 q 168 9 166 6 q 164 3 159 1 q 154 0 146 -2 q 138 -3 126 -3 q 114 -3 106 -2 q 98 0 93 1 q 88 3 86 6 q 84 9 84 13 l 84 619 q 84 623 86 626 q 88 629 93 631 q 98 632 106 634 q 114 635 126 635 q 138 635 146 634 q 154 632 159 631 q 164 629 166 626 q 168 623 168 619 l 168 366 l 456 366 l 456 619 q 456 623 458 626 q 459 629 464 631 q 469 632 477 634 q 485 635 498 635 q 509 635 517 634 q 525 632 530 631 q 535 629 537 626 q 539 623 539 619 z"},"4":{"x_min":0,"x_max":507,"ha":507,"o":"m 478 180 q 478 164 473 154 q 468 145 459 145 l 388 145 l 388 12 q 388 8 386 6 q 384 3 379 1 q 375 -1 367 -2 q 359 -3 347 -3 q 335 -3 327 -2 q 319 -1 315 1 q 310 3 308 6 q 307 8 307 12 l 307 145 l 46 145 q 40 145 36 146 q 32 148 29 152 q 26 156 25 163 q 23 170 23 182 q 23 191 24 199 q 24 206 26 212 q 27 218 30 224 q 32 229 36 236 l 263 620 q 266 624 270 626 q 275 629 282 631 q 290 633 300 634 q 311 635 326 635 q 342 635 354 634 q 366 632 373 630 q 380 628 384 625 q 388 622 388 618 l 388 214 l 459 214 q 468 214 473 206 q 478 197 478 180 z m 307 561 l 306 561 l 100 214 l 307 214 z"},"~":{"x_min":0,"x_max":498,"ha":498,"o":"m 470 506 q 469 473 458 448 q 447 423 430 406 q 413 390 390 381 q 368 373 344 373 q 321 373 304 378 q 287 383 273 391 q 260 400 250 411 q 240 421 231 433 q 222 444 214 454 q 206 463 197 471 q 188 479 178 483 q 167 487 154 487 q 138 487 126 480 q 115 473 107 461 q 100 450 97 435 q 94 419 94 402 q 94 394 85 391 q 77 388 62 388 q 52 388 46 389 q 40 390 36 392 q 32 394 31 396 q 30 399 30 403 l 30 416 q 30 450 39 475 q 48 501 65 518 q 82 536 105 544 q 128 553 155 553 q 178 553 196 548 q 213 543 226 535 q 239 526 250 516 q 260 505 269 494 q 277 483 285 473 q 293 463 302 456 q 311 448 321 444 q 332 439 345 439 q 361 439 373 446 q 384 452 392 464 q 399 475 402 491 q 406 506 406 525 q 406 533 414 535 q 422 538 438 538 q 447 538 453 537 q 459 537 463 535 q 467 533 469 530 q 470 527 470 522 z"},"D":{"x_min":0,"x_max":615,"ha":615,"o":"m 570 325 q 570 243 549 182 q 528 121 488 80 q 447 40 389 20 q 330 0 249 0 l 115 0 q 104 0 94 8 q 84 15 84 34 l 84 598 q 84 617 94 624 q 104 632 115 632 l 258 632 q 340 632 397 611 q 454 589 492 550 q 530 510 550 453 q 570 396 570 325 z m 481 322 q 481 373 469 417 q 456 461 429 494 q 402 526 360 544 q 319 562 253 562 l 168 562 l 168 70 l 254 70 q 315 70 356 85 q 398 101 426 132 q 454 163 468 210 q 481 257 481 322 z"},"^":{"x_min":0,"x_max":498,"ha":498,"o":"m 439 305 q 443 295 444 290 q 444 284 440 281 q 437 278 428 278 q 419 277 405 277 q 393 277 384 278 q 375 278 370 280 q 365 282 362 285 q 359 288 357 292 l 244 561 l 243 560 l 136 292 q 134 288 132 285 q 129 282 124 280 q 118 278 110 278 q 102 277 89 277 q 75 277 67 278 q 59 278 55 281 q 52 285 52 290 q 52 295 56 305 l 195 621 q 196 625 200 629 q 204 632 210 634 q 216 636 225 637 q 234 638 246 638 q 258 638 267 637 q 276 636 282 634 q 288 632 292 629 q 295 625 297 621 z"},"0":{"x_min":0,"x_max":507,"ha":507,"o":"m 472 317 q 472 245 461 185 q 449 125 423 81 q 396 38 353 14 q 310 -9 247 -9 q 188 -9 147 12 q 106 33 81 74 q 56 116 46 176 q 35 236 35 314 q 35 387 47 447 q 59 507 85 551 q 111 594 154 617 q 197 641 260 641 q 320 641 361 620 q 401 599 426 557 q 451 516 462 456 q 472 396 472 317 z m 386 312 q 386 359 383 396 q 379 434 373 463 q 366 492 356 512 q 345 533 331 547 q 316 560 297 566 q 278 572 255 572 q 213 572 188 553 q 162 533 147 499 q 132 465 126 419 q 121 373 121 320 q 121 250 128 200 q 136 150 152 119 q 167 88 192 74 q 217 60 252 60 q 279 60 300 68 q 321 77 336 94 q 351 110 360 133 q 370 156 376 184 q 382 211 384 244 q 386 276 386 312 z"},"F":{"x_min":0,"x_max":459,"ha":459,"o":"m 416 596 q 416 586 415 580 q 414 573 412 569 q 409 564 406 562 q 403 561 399 561 l 168 561 l 168 346 l 387 346 q 390 346 393 344 q 396 342 399 338 q 401 334 402 328 q 403 321 403 311 q 403 302 402 295 q 401 289 399 284 q 396 280 393 278 q 390 276 387 276 l 168 276 l 168 13 q 168 9 166 6 q 164 3 159 1 q 154 0 146 -2 q 139 -3 126 -3 q 114 -3 106 -2 q 98 0 93 1 q 88 3 86 6 q 84 9 84 13 l 84 598 q 84 617 94 624 q 104 632 115 632 l 399 632 q 403 632 406 630 q 409 628 412 624 q 414 619 415 612 q 416 605 416 596 z"},"`":{"x_min":0,"x_max":291,"ha":291,"o":"m 222 554 q 226 548 227 544 q 228 541 225 538 q 222 536 216 534 q 210 533 199 533 q 189 533 183 533 q 177 534 172 536 q 167 538 164 541 q 161 543 157 548 l 69 662 q 65 667 64 671 q 64 675 67 678 q 71 681 79 683 q 88 685 102 685 q 113 685 121 684 q 129 683 135 681 q 140 679 144 675 q 148 672 152 667 z m 0 464 z"},"k":{"x_min":0,"x_max":455,"ha":455,"o":"m 436 13 q 436 9 434 6 q 432 3 427 1 q 422 -1 414 -2 q 406 -3 393 -3 q 380 -3 371 -2 q 363 -1 357 0 q 351 2 347 5 q 344 8 341 13 l 155 256 l 155 12 q 155 8 153 6 q 151 3 147 1 q 143 -1 135 -2 q 127 -3 115 -3 q 103 -3 95 -2 q 87 -1 83 1 q 78 3 76 6 q 75 8 75 12 l 75 665 q 75 668 76 671 q 78 674 83 676 q 87 678 95 679 q 103 680 115 680 q 127 680 135 679 q 143 678 147 676 q 151 674 153 671 q 155 668 155 665 l 155 267 l 321 450 q 325 455 330 458 q 334 461 340 463 q 346 465 354 466 q 363 467 375 467 q 387 467 395 466 q 403 465 408 464 q 414 462 416 459 q 418 457 418 452 q 418 446 415 440 q 412 435 404 427 l 245 268 l 424 36 q 430 27 433 22 q 436 17 436 13 z"},"u":{"x_min":0,"x_max":525,"ha":525,"o":"m 451 12 q 451 8 449 6 q 448 3 443 1 q 439 -1 432 -2 q 425 -3 415 -3 q 403 -3 396 -2 q 389 -1 385 1 q 381 3 379 6 q 378 8 378 12 l 378 70 q 340 29 304 10 q 267 -9 229 -9 q 186 -9 156 5 q 125 20 107 45 q 88 70 80 104 q 72 137 72 185 l 72 452 q 72 456 74 458 q 76 461 81 463 q 85 465 93 466 q 101 467 113 467 q 125 467 132 466 q 140 465 145 463 q 149 461 151 458 q 153 456 153 452 l 153 196 q 153 157 159 134 q 165 111 176 94 q 188 78 205 69 q 223 60 246 60 q 276 60 306 82 q 336 103 370 145 l 370 452 q 370 456 372 458 q 374 461 378 463 q 383 465 391 466 q 398 467 411 467 q 422 467 430 466 q 438 465 442 463 q 447 461 449 458 q 451 456 451 452 z"},"]":{"x_min":0,"x_max":307,"ha":307,"o":"m 214 -122 q 214 -132 211 -138 q 208 -145 204 -149 q 200 -153 194 -155 q 188 -156 183 -156 l 58 -156 q 51 -156 48 -150 q 44 -143 44 -127 q 44 -119 45 -113 q 45 -107 47 -104 q 49 -100 52 -99 q 55 -97 58 -97 l 138 -97 l 138 624 l 58 624 q 51 624 48 630 q 44 637 44 653 q 44 661 45 667 q 45 672 47 676 q 49 680 52 682 q 55 683 58 683 l 183 683 q 188 683 194 681 q 200 680 204 676 q 208 671 211 665 q 214 658 214 649 z"},"U":{"x_min":0,"x_max":642,"ha":642,"o":"m 559 233 q 559 176 542 131 q 525 85 494 54 q 463 23 418 7 q 373 -9 316 -9 q 264 -9 221 6 q 178 21 147 51 q 116 80 100 125 q 83 169 83 227 l 83 619 q 83 623 85 626 q 87 629 92 631 q 97 632 104 634 q 112 635 125 635 q 137 635 145 634 q 153 632 158 631 q 163 629 165 626 q 167 623 167 619 l 167 237 q 167 193 177 161 q 188 128 208 106 q 229 84 257 73 q 286 62 321 62 q 358 62 386 73 q 415 84 435 105 q 455 127 465 159 q 476 190 476 233 l 476 619 q 476 623 478 626 q 479 629 484 631 q 489 632 497 634 q 505 635 518 635 q 529 635 537 634 q 545 632 550 631 q 555 629 557 626 q 559 623 559 619 z"},"o":{"x_min":0,"x_max":527,"ha":527,"o":"m 483 237 q 483 183 469 138 q 455 93 427 60 q 399 27 357 9 q 314 -9 259 -9 q 205 -9 164 7 q 124 23 97 54 q 70 84 57 128 q 44 172 44 228 q 44 282 58 327 q 72 372 100 405 q 128 438 170 456 q 212 474 268 474 q 322 474 363 458 q 403 441 430 411 q 457 380 470 336 q 483 292 483 237 z m 398 231 q 398 267 392 299 q 385 331 370 354 q 355 378 329 392 q 303 406 265 406 q 229 406 203 394 q 178 381 161 358 q 145 334 136 303 q 128 271 128 233 q 128 197 135 166 q 142 134 157 110 q 172 86 198 73 q 224 59 263 59 q 298 59 324 71 q 350 84 366 107 q 383 130 391 162 q 398 193 398 231 z"},"N":{"x_min":0,"x_max":646,"ha":646,"o":"m 562 35 q 562 25 558 18 q 555 11 550 7 q 545 2 539 0 q 532 -1 526 -1 l 499 -1 q 486 -1 477 1 q 467 4 459 11 q 450 18 442 30 q 433 42 423 62 l 224 421 q 208 449 192 479 q 176 510 163 539 l 162 539 q 163 503 163 467 q 164 430 164 394 l 164 13 q 164 9 162 6 q 160 3 155 1 q 150 0 143 -2 q 135 -3 124 -3 q 112 -3 104 -2 q 97 0 92 1 q 88 3 86 6 q 84 9 84 13 l 84 596 q 84 615 95 624 q 105 632 118 632 l 158 632 q 172 632 182 629 q 191 627 199 621 q 207 616 214 606 q 221 596 229 581 l 382 303 q 396 278 410 254 q 423 229 435 206 q 447 183 459 160 q 471 137 483 114 l 483 114 q 482 153 482 195 q 482 236 482 275 l 482 618 q 482 621 484 624 q 486 627 490 629 q 495 631 503 632 q 510 633 522 633 q 533 633 541 632 q 549 631 553 629 q 558 627 560 624 q 562 621 562 618 z"},"+":{"x_min":0,"x_max":498,"ha":498,"o":"m 464 281 q 464 272 462 265 q 461 259 458 254 q 456 250 453 248 q 449 246 445 246 l 285 246 l 285 68 q 285 64 283 62 q 281 59 277 57 q 273 55 266 54 q 259 53 249 53 q 239 53 232 54 q 225 55 221 57 q 217 59 215 62 q 213 64 213 68 l 213 246 l 53 246 q 48 246 45 248 q 42 250 40 254 q 37 259 36 265 q 34 272 34 281 q 34 290 36 297 q 37 303 40 308 q 42 312 45 314 q 48 316 52 316 l 213 316 l 213 494 q 213 498 215 501 q 217 504 221 506 q 225 508 232 510 q 239 511 249 511 q 259 511 266 510 q 273 508 277 506 q 281 504 283 501 q 285 498 285 494 l 285 316 l 446 316 q 450 316 453 314 q 456 312 459 308 q 461 303 463 297 q 464 290 464 281 z"},"G":{"x_min":0,"x_max":631,"ha":631,"o":"m 559 546 q 559 537 558 530 q 557 522 555 518 q 553 513 550 511 q 547 509 543 509 q 538 509 524 519 q 510 528 487 539 q 464 550 432 560 q 400 569 356 569 q 304 569 263 550 q 221 531 192 497 q 164 463 148 417 q 133 371 133 316 q 133 256 150 209 q 167 162 196 130 q 226 98 267 81 q 309 64 358 64 q 387 64 417 72 q 447 79 473 93 l 473 277 l 327 277 q 318 277 314 285 q 310 293 310 311 q 310 320 311 327 q 312 333 314 338 q 316 342 319 344 q 322 346 327 346 l 527 346 q 533 346 538 344 q 543 342 548 338 q 552 334 555 327 q 557 320 557 312 l 557 71 q 557 58 553 49 q 548 40 534 32 q 520 25 498 17 q 475 9 451 3 q 427 -3 403 -6 q 378 -9 354 -9 q 281 -9 224 14 q 166 37 126 79 q 86 121 65 179 q 44 238 44 310 q 44 385 67 446 q 90 507 131 550 q 172 593 230 617 q 288 641 358 641 q 395 641 426 634 q 458 628 483 619 q 507 611 524 601 q 541 591 547 584 q 554 578 556 570 q 559 562 559 546 z"},"q":{"x_min":0,"x_max":525,"ha":525,"o":"m 451 -162 q 451 -166 449 -169 q 447 -172 442 -174 q 438 -176 430 -177 q 422 -178 411 -178 q 398 -178 391 -177 q 383 -176 378 -174 q 374 -172 372 -169 q 370 -166 370 -162 l 370 63 q 350 43 332 29 q 314 15 296 7 q 279 -2 261 -6 q 243 -9 224 -9 q 176 -9 143 10 q 109 28 88 60 q 66 92 57 135 q 47 179 47 227 q 47 283 59 329 q 71 375 95 407 q 120 439 155 456 q 190 474 237 474 q 256 474 273 469 q 291 465 307 456 q 324 447 342 433 q 359 418 379 398 l 379 452 q 379 456 381 459 q 383 461 388 463 q 392 465 399 466 q 406 467 416 467 q 426 467 433 466 q 439 465 444 463 q 448 461 449 459 q 451 456 451 452 z m 370 321 q 337 362 307 383 q 276 404 243 404 q 212 404 191 390 q 169 375 156 351 q 143 327 136 297 q 130 267 130 235 q 130 202 135 170 q 141 138 153 114 q 166 89 187 74 q 208 60 240 60 q 256 60 271 64 q 286 68 301 79 q 317 89 334 105 q 351 122 370 146 z"},"d":{"x_min":0,"x_max":525,"ha":525,"o":"m 451 12 q 451 8 449 5 q 448 2 444 1 q 439 -1 433 -2 q 426 -3 416 -3 q 406 -3 399 -2 q 392 -1 388 1 q 383 2 381 5 q 379 8 379 12 l 379 70 q 345 33 307 12 q 270 -9 226 -9 q 177 -9 143 10 q 109 28 88 60 q 66 92 57 135 q 47 179 47 227 q 47 283 59 329 q 71 375 95 407 q 119 439 155 456 q 190 474 236 474 q 275 474 307 457 q 339 440 370 407 l 370 663 q 370 666 372 669 q 374 672 378 674 q 383 676 391 677 q 398 678 410 678 q 422 678 430 677 q 438 676 442 674 q 447 672 449 669 q 451 666 451 663 z m 370 321 q 337 362 307 383 q 276 404 243 404 q 212 404 191 390 q 169 375 156 351 q 143 327 136 297 q 130 267 130 235 q 130 202 135 170 q 141 139 153 114 q 166 89 187 74 q 208 60 240 60 q 256 60 271 64 q 286 68 301 79 q 317 89 334 105 q 351 122 370 146 z"},"1":{"x_min":0,"x_max":507,"ha":507,"o":"m 453 33 q 453 24 451 18 q 450 11 447 7 q 445 3 442 2 q 438 0 435 0 l 105 0 q 102 0 99 2 q 96 3 93 7 q 90 11 89 18 q 87 24 87 33 q 87 42 89 48 q 90 55 93 59 q 95 63 98 65 q 101 67 105 67 l 237 67 l 237 548 l 115 475 q 105 470 100 469 q 94 468 91 471 q 87 475 86 482 q 85 489 85 500 q 85 509 86 515 q 86 521 88 524 q 89 528 92 531 q 95 534 99 537 l 245 630 q 247 632 250 633 q 252 634 257 635 q 261 636 267 636 q 273 636 282 636 q 293 636 301 635 q 309 634 313 633 q 318 631 319 628 q 321 625 321 623 l 321 67 l 435 67 q 439 67 442 65 q 446 63 448 59 q 450 55 451 48 q 453 42 453 33 z"},"5":{"x_min":0,"x_max":507,"ha":507,"o":"m 448 203 q 448 152 431 113 q 414 73 383 46 q 352 19 308 5 q 265 -9 212 -9 q 183 -9 157 -5 q 130 -1 110 5 q 89 11 76 17 q 63 23 59 26 q 56 30 54 33 q 53 36 52 40 q 50 44 50 50 q 49 57 49 65 q 49 74 50 80 q 51 87 53 91 q 55 95 57 97 q 60 99 63 99 q 68 99 79 93 q 89 87 106 80 q 124 73 149 66 q 175 60 210 60 q 243 60 270 68 q 297 76 317 92 q 337 109 348 134 q 359 159 359 195 q 359 226 350 249 q 340 272 321 287 q 301 303 271 310 q 240 318 198 318 q 168 318 147 315 q 125 312 107 312 q 93 312 87 318 q 82 325 82 343 l 82 600 q 82 616 89 624 q 97 632 111 632 l 391 632 q 395 632 398 630 q 402 627 404 623 q 407 619 408 612 q 409 605 409 596 q 409 578 404 568 q 399 559 391 559 l 155 559 l 155 381 q 172 384 190 384 q 208 385 231 385 q 285 385 326 372 q 366 359 393 335 q 420 312 434 278 q 448 244 448 203 z"}}}
